<?xml version="1.0" encoding="UTF-8" standalone="no"?>
<svg height="48" width="48" xmlns="http://www.w3.org/2000/svg" xmlns:xlink="http://www.w3.org/1999/xlink">
  <defs>
    <linearGradient id="a" gradientUnits="userSpaceOnUse" x1="388.734982" x2="428.407982" y1="503.991002" y2="543.932002">
      <stop offset="0" stop-color="#3f3f3f"/>
      <stop offset=".11" stop-color="#de7d9c"/>
      <stop offset=".449" stop-color="#cc3d8a"/>
      <stop offset=".934" stop-color="#5f2b76"/>
      <stop offset="1" stop-color="#3f3f3f" stop-opacity="0"/>
    </linearGradient>
  </defs>
  <g transform="translate(-384.57143 -499.798)">
    <rect fill="url(#a)" height="40" opacity=".9" rx="20" stroke-opacity=".550265" stroke-width="2.8" width="40" x="388.57" y="503.8"/>
    <path d="m388.58314 523.298c-.004.16686-.0117.33212-.0117.5 0 11.07999 8.92001 20 20 20s20-8.92001 20-20c0-.16788-.008-.33315-.0117-.5-.26418 10.84657-9.07584 19.5-19.98828 19.5s-19.7241-8.65343-19.98828-19.5z" opacity=".15" stroke-opacity=".550265" stroke-width="2.8"/>
    <g fill="#fff">
      <path d="m23.78125 10.386719c-2.68998-.01228-4.99636.486969-7.09375 1.537109-.69823.34958-.806919.472199-.761719.84961.09231.770269.490029.845046 1.667969.316406 2.18986-.98274 3.255358-1.192313 6.017578-1.195313 3.17015-.00263 4.33761.268945 6.9375 1.615235.44669.23099 1.860852 1.322618 2.388672.736328.52275-.52272.246551-.955363-1.099609-1.720703-2.6548-1.50935-4.974401-2.124072-8.056641-2.138672zm-.082031 3.113281c-3.549223-.002685-7.096241 1.399569-9.697266 4.208984-1.0062 1.08683-2.179687 2.868164-2.179687 3.308594 0 .51354.211753.796875.595703.796875.30096 0 .607197-.324692 1.335937-1.419922 1.62983-2.44946 3.742724-4.074446 6.464844-4.972656 2.11111-.68904 4.583264-.60927 6.958984 0 3.06748 1.00827 5.699035 3.254453 7.140625 6.095703.31369.61823.501334.806641.808594.806641.52917 0 .839863-.393793.695313-.882813-.23308-.78876-1.476519-2.699927-2.417969-3.716797-2.604645-2.813375-6.155856-4.221924-9.705078-4.224609zm.167969 3.091797c-.756485-.013142-1.52404.058428-2.291016.21875-3.64461.76184-6.690876 3.713504-7.666016 7.427734-.51749 1.97103-.279601 5.190525.574219 7.765625.25517.76956.378361.930057.744141.972656.84097.097741.92315-.302518.419922-2.042968-1.439952-4.98014-.200267-9.217104 3.371093-11.527344 3.53093-2.28409 8.387061-1.608119 11.150391 1.550781 1.73162 1.97952 2.681421 5.327843 1.925781 6.789063-.49917.96532-1.714558 1.545482-2.712891 1.294922-.729559-.1831-1.594378-1.079688-1.705078-1.767578-.39067-2.42748-.94209-3.377464-2.33789-4.027344-1.19066-.55439-2.183113-.539086-3.351563.052734-1.08873.55146-1.922877 1.664486-2.091797 2.791016-.06094.40595-.034153 1.284442.060547 1.951172.58902 4.15309 3.560395 7.438538 7.640625 8.449218.51314.12705 1.352095.216819 1.865235.199219l.933593-.03125c.52735-.26769.55621-.88379 0-1.1875l-1.320312-.201172c-1.66178-.25323-2.349938-.472194-3.492188-1.115234-2.48398-1.39837-4.263672-4.429739-4.263672-7.261719 0-1.24802.472529-1.977024 1.574219-2.433594.79604-.32992.807476-.32992 1.603516 0 1.00744.41752 1.492387 1.116262 1.617187 2.326172.22918 2.22048 1.770063 3.681641 3.882813 3.681641 1.69558 0 3.122796-1.100315 3.628906-2.796875.49535-1.66036-.169636-4.449113-1.566406-6.570313-1.851119-2.811176-4.915264-4.450863-8.193359-4.507812zm-.109376 3.216797c-1.055759.013355-2.141469.208167-3.03125.554687-1.37195.67192-2.679258 2.013797-3.355468 3.441407-.51455 1.086259-.545242 1.255429-.544922 3.099609.00038 2.26889.274953 3.474189 1.251953 5.511719.84186 1.75567 2.008218 3.286907 3.304687 4.335937 1.12375.90928 1.243128.953408 1.710938.611328.47892-.35017.211801-.951509-.755859-1.693359-1.04919-.80436-2.182396-2.259326-2.947266-3.785156-1.25635-2.50621-1.572866-5.603674-.753906-7.376954.59437-1.286979 1.50069-2.246983 2.65625-2.814453 1.38836-.6818 3.416327-.6818 4.804687 0 1.6571.81376 2.716647 2.295505 3.091797 4.328125.22392 1.2133.562888 1.616594 1.080078 1.283204.23965-.15448.291831-.411898.269531-1.335938-.05418-2.24624-1.627974-4.501519-3.927734-5.630859-.772-.37564-1.797756-.542652-2.853516-.529297z" transform="translate(384.57143 499.798)"/>
      <path d="m413.01689 533.25511c-2.89862-.6323-5.1328-3.18614-5.38364-6.15391-.0793-.93797-.0518-1.06193.27295-1.23578.61868-.33111.97625.0165 1.1 1.06933.31116 2.64741 2.25668 4.64408 4.87395 5.00201 1.28052.17513 1.69235.66676 1.07537 1.28374-.30891.30891-.65299.31506-1.93863.0347z"/>
    </g>
  </g>
</svg>